<?xml version="1.0" standalone="no"?>
<!DOCTYPE svg PUBLIC "-//W3C//DTD SVG 20010904//EN"
 "http://www.w3.org/TR/2001/REC-SVG-20010904/DTD/svg10.dtd">
<svg version="1.0" xmlns="http://www.w3.org/2000/svg"
 width="800.000000pt" height="800.000000pt" viewBox="0 0 800.000000 800.000000"
 preserveAspectRatio="xMidYMid meet">
<metadata>
Created by potrace 1.11, written by Peter Selinger 2001-2013
</metadata>
<g transform="translate(0.000000,800.000000) scale(0.100000,-0.100000)"
fill="#000000" stroke="none">
<path d="M63 7980 c-18 -10 -39 -33 -48 -49 -13 -27 -15 -428 -15 -3928 0
-3691 1 -3900 18 -3933 10 -20 32 -42 52 -52 33 -17 242 -18 3930 -18 3688 0
3897 1 3930 18 20 10 42 32 52 52 17 33 18 242 18 3930 0 3688 -1 3897 -18
3930 -10 20 -32 42 -52 52 -33 17 -242 18 -3935 18 -3850 0 -3900 0 -3932 -20z
m5323 -920 c277 -71 488 -277 576 -560 l23 -75 3 -1795 c2 -1298 0 -1817 -8
-1875 -38 -261 -201 -483 -443 -601 -173 -84 -76 -79 -1532 -79 l-1290 0 -85
23 c-286 76 -489 277 -572 567 l-23 80 0 1830 c0 2066 -7 1879 80 2060 101
209 291 366 515 424 73 19 116 20 1376 20 1274 1 1302 1 1380 -19z m-2985
-5094 c24 -13 68 -31 97 -41 34 -11 52 -22 49 -30 -3 -6 -26 -44 -51 -84 -25
-39 -46 -73 -46 -76 0 -3 698 -5 1550 -5 853 0 1550 2 1550 6 0 3 -23 40 -50
83 -27 43 -50 81 -50 84 0 3 17 11 38 18 20 6 63 25 96 41 32 16 62 26 66 21
27 -27 604 -912 608 -930 12 -60 -47 -133 -106 -133 -50 0 -69 14 -118 91
l-45 69 -1995 0 -1994 0 -45 -69 c-48 -76 -67 -91 -115 -91 -44 0 -100 56
-100 100 0 17 5 41 11 53 14 27 600 917 604 917 1 0 22 -11 46 -24z"/>
<path d="M2693 6855 c-148 -32 -304 -153 -376 -291 -72 -140 -67 9 -67 -1984
0 -1981 -4 -1842 63 -1980 65 -133 226 -259 378 -295 97 -22 2542 -22 2638 0
205 49 375 216 426 421 13 53 15 276 13 1880 l-3 1819 -28 69 c-73 182 -234
323 -414 361 -98 21 -2535 21 -2630 0z m2727 -418 c14 -7 33 -28 42 -47 17
-33 18 -98 18 -928 0 -749 -2 -898 -14 -927 -29 -70 76 -65 -1458 -65 -1078 0
-1388 3 -1407 13 -13 6 -34 25 -45 40 -21 28 -21 33 -24 918 -2 610 1 903 8
930 8 28 21 46 43 59 31 20 61 20 1422 20 1091 0 1395 -3 1415 -13z m-2096
-2437 c190 -64 342 -231 392 -430 24 -95 15 -253 -19 -342 -88 -228 -286 -377
-527 -394 -230 -17 -466 119 -567 327 -50 103 -66 169 -65 274 1 274 189 512
457 579 86 22 240 15 329 -14z m1686 4 c212 -49 383 -214 446 -429 22 -77 23
-219 0 -304 -85 -327 -434 -522 -756 -422 -180 56 -326 198 -392 381 -20 56
-23 83 -23 195 1 117 3 137 28 200 112 286 408 447 697 379z"/>
<path d="M2750 5465 l0 -765 1255 0 1255 0 0 765 0 765 -1255 0 -1255 0 0
-765z"/>
<path d="M3072 3800 c-118 -17 -231 -104 -286 -220 -28 -59 -31 -74 -31 -160
0 -82 4 -103 27 -153 35 -75 113 -156 185 -193 53 -26 67 -29 163 -29 99 0
109 2 172 33 137 67 212 187 212 342 0 64 -6 99 -23 142 -26 67 -103 157 -165
193 -69 40 -167 57 -254 45z"/>
<path d="M4792 3805 c-82 -18 -137 -51 -200 -120 -174 -190 -111 -492 127
-604 49 -23 68 -26 161 -26 96 0 110 2 163 29 121 62 206 189 215 321 16 258
-214 455 -466 400z"/>
<path d="M2223 1407 l-72 -112 925 -3 c509 -1 1339 -1 1844 0 l919 3 -72 112
-72 113 -1700 0 -1700 0 -72 -113z"/>
</g>
</svg>
